<?xml version="1.0" encoding="UTF-8" standalone="no"?>
<!-- Created with Digital by H.Neemann -->
<!-- created: Mon Jul 17 11:24:57 EDT 2023 -->

<svg
   xmlns:svg="http://www.w3.org/2000/svg"
   xmlns="http://www.w3.org/2000/svg"
   width="246.6mm"
   height="84.6mm"
   viewBox="376 -132 1644 564">
<g stroke-linecap="square">
<path d="M 620,-20 L 620,0 L 640,0" stroke="#0000b2" stroke-width="4.0" fill="none"/>
<path d="M 440,320 L 560,320 L 560,60 L 780,60 L 780,40 L 800,40" stroke="#0000b2" stroke-width="4.0" fill="none"/>
<path d="M 740,320 L 760,320 L 760,340 L 800,340" stroke="#0000b2" stroke-width="4.0" fill="none"/>
<path d="M 600,240 L 600,320 L 620,320 L 620,300 L 640,300" stroke="#0000b2" stroke-width="4.0" fill="none"/>
<path d="M 1420,240 L 1420,260 L 1440,260" stroke="#0000b2" stroke-width="4.0" fill="none"/>
<path d="M 620,-100 L 620,-80 L 640,-80" stroke="#0000b2" stroke-width="4.0" fill="none"/>
<path d="M 780,60 L 780,80 L 800,80" stroke="#0000b2" stroke-width="4.0" fill="none"/>
<path d="M 1420,80 L 1440,80 L 1440,100 L 1480,100" stroke="#0000b2" stroke-width="4.0" fill="none"/>
<path d="M 740,400 L 760,400 L 760,380 L 800,380" stroke="#0000b2" stroke-width="4.0" fill="none"/>
<path d="M 560,320 L 560,400 L 620,400 L 620,380 L 640,380" stroke="#0000b2" stroke-width="4.0" fill="none"/>
<path d="M 740,-20 L 760,-20 L 760,-40 L 800,-40" stroke="#0000b2" stroke-width="4.0" fill="none"/>
<path d="M 520,240 L 520,-20 L 620,-20 L 620,-40 L 640,-40" stroke="#0000b2" stroke-width="4.0" fill="none"/>
<path d="M 620,320 L 620,340 L 640,340" stroke="#0000b2" stroke-width="4.0" fill="none"/>
<path d="M 1720,220 L 1760,220 L 1760,200 L 1780,200" stroke="#0000b2" stroke-width="4.0" fill="none"/>
<path d="M 1880,220 L 1960,220" stroke="#0000b2" stroke-width="4.0" fill="none"/>
<path d="M 440,160 L 480,160 L 480,-100 L 620,-100 L 620,-120 L 640,-120" stroke="#0000b2" stroke-width="4.0" fill="none"/>
<path d="M 1420,160 L 1440,160 L 1440,140 L 1480,140" stroke="#0000b2" stroke-width="4.0" fill="none"/>
<path d="M 1260,160 L 1300,160 L 1300,140 L 1320,140" stroke="#0000b2" stroke-width="4.0" fill="none"/>
<path d="M 740,-100 L 760,-100 L 760,-80 L 800,-80" stroke="#0000b2" stroke-width="4.0" fill="none"/>
<path d="M 620,400 L 620,420 L 640,420" stroke="#0000b2" stroke-width="4.0" fill="none"/>
<path d="M 1300,80 L 1300,100 L 1320,100" stroke="#0000b2" stroke-width="4.0" fill="none"/>
<path d="M 900,360 L 940,360 L 940,160 L 1140,160 L 1140,140 L 1160,140" stroke="#0000b2" stroke-width="4.0" fill="none"/>
<path d="M 1060,40 L 1080,40 L 1080,20 L 1100,20" stroke="#0000b2" stroke-width="4.0" fill="none"/>
<path d="M 1200,40 L 1240,40 L 1240,80 L 1300,80 L 1300,60 L 1320,60" stroke="#0000b2" stroke-width="4.0" fill="none"/>
<path d="M 1760,220 L 1760,240 L 1780,240" stroke="#0000b2" stroke-width="4.0" fill="none"/>
<path d="M 1540,240 L 1620,240" stroke="#0000b2" stroke-width="4.0" fill="none"/>
<path d="M 440,240 L 520,240 L 600,240 L 1420,240 L 1420,220 L 1440,220" stroke="#0000b2" stroke-width="4.0" fill="none"/>
<path d="M 1300,160 L 1300,180 L 1320,180" stroke="#0000b2" stroke-width="4.0" fill="none"/>
<path d="M 1140,160 L 1140,180 L 1160,180" stroke="#0000b2" stroke-width="4.0" fill="none"/>
<path d="M 1580,120 L 1600,120 L 1600,200 L 1620,200" stroke="#0000b2" stroke-width="4.0" fill="none"/>
<path d="M 900,-60 L 940,-60 L 940,20 L 960,20" stroke="#0000b2" stroke-width="4.0" fill="none"/>
<path d="M 1080,40 L 1080,60 L 1100,60" stroke="#0000b2" stroke-width="4.0" fill="none"/>
<path d="M 900,60 L 960,60" stroke="#0000b2" stroke-width="4.0" fill="none"/>
<g>
<circle cx="560.0" cy="320.0" r="4.0" stroke="#0000b2" stroke-width="4.0" fill="#0000b2" />
<circle cx="620.0" cy="320.0" r="4.0" stroke="#0000b2" stroke-width="4.0" fill="#0000b2" />
<circle cx="1300.0" cy="80.0" r="4.0" stroke="#0000b2" stroke-width="4.0" fill="#0000b2" />
<circle cx="620.0" cy="400.0" r="4.0" stroke="#0000b2" stroke-width="4.0" fill="#0000b2" />
<circle cx="620.0" cy="-20.0" r="4.0" stroke="#0000b2" stroke-width="4.0" fill="#0000b2" />
<circle cx="1760.0" cy="220.0" r="4.0" stroke="#0000b2" stroke-width="4.0" fill="#0000b2" />
<circle cx="1140.0" cy="160.0" r="4.0" stroke="#0000b2" stroke-width="4.0" fill="#0000b2" />
<circle cx="1300.0" cy="160.0" r="4.0" stroke="#0000b2" stroke-width="4.0" fill="#0000b2" />
<circle cx="620.0" cy="-100.0" r="4.0" stroke="#0000b2" stroke-width="4.0" fill="#0000b2" />
<circle cx="1080.0" cy="40.0" r="4.0" stroke="#0000b2" stroke-width="4.0" fill="#0000b2" />
<circle cx="520.0" cy="240.0" r="4.0" stroke="#0000b2" stroke-width="4.0" fill="#0000b2" />
<circle cx="600.0" cy="240.0" r="4.0" stroke="#0000b2" stroke-width="4.0" fill="#0000b2" />
<circle cx="1420.0" cy="240.0" r="4.0" stroke="#0000b2" stroke-width="4.0" fill="#0000b2" />
<circle cx="780.0" cy="60.0" r="4.0" stroke="#0000b2" stroke-width="4.0" fill="#0000b2" />
</g>
<g>
<circle cx="1976.0" cy="220.0" r="9.0" stroke="#000000" stroke-width="4.0" fill="none" />
<circle cx="1976.0" cy="220.0" r="15.0" stroke="#000000" stroke-width="4.0" fill="none" />
<text text-anchor="start" x="2005.0" y="229.0" fill="#000000" style="font-size:24px"><tspan style="font-style:italic;">F</tspan></text>
<circle cx="1960.0" cy="220.0" r="2.0" stroke="#0000b2" stroke-width="4.0" fill="#0000b2" />
</g>
<g>
<path d="M 409,145 L 439,145 L 439,175 L 409,175 Z" stroke="#000000" stroke-width="4.0" fill="none"/>
<circle cx="424.0" cy="160.0" r="9.0" stroke="#000000" stroke-width="4.0" fill="none" />
<text text-anchor="end" x="395.0" y="169.0" fill="#000000" style="font-size:24px"><tspan style="font-style:italic;">C</tspan></text>
<circle cx="440.0" cy="160.0" r="2.0" stroke="#b20000" stroke-width="4.0" fill="#b20000" />
</g>
<g>
<path d="M 409,225 L 439,225 L 439,255 L 409,255 Z" stroke="#000000" stroke-width="4.0" fill="none"/>
<circle cx="424.0" cy="240.0" r="9.0" stroke="#000000" stroke-width="4.0" fill="none" />
<text text-anchor="end" x="395.0" y="249.0" fill="#000000" style="font-size:24px"><tspan style="font-style:italic;">B</tspan></text>
<circle cx="440.0" cy="240.0" r="2.0" stroke="#b20000" stroke-width="4.0" fill="#b20000" />
</g>
<g>
<path d="M 409,305 L 439,305 L 439,335 L 409,335 Z" stroke="#000000" stroke-width="4.0" fill="none"/>
<circle cx="424.0" cy="320.0" r="9.0" stroke="#000000" stroke-width="4.0" fill="none" />
<text text-anchor="end" x="395.0" y="329.0" fill="#000000" style="font-size:24px"><tspan style="font-style:italic;">A</tspan></text>
<circle cx="440.0" cy="320.0" r="2.0" stroke="#b20000" stroke-width="4.0" fill="#b20000" />
</g>
<g>
<path d="M 850,90 L 801,90 L 801,30 L 850,30 C 860,30 880,40 879,60 C 879,80 860,90 850,90 Z" stroke="#000000" stroke-width="4.0" fill="none"/>
<circle cx="890.0" cy="60.0" r="9.0" stroke="#000000" stroke-width="4.0" fill="none" />
<circle cx="800.0" cy="40.0" r="2.0" stroke="#0000b2" stroke-width="4.0" fill="#0000b2" />
<circle cx="800.0" cy="80.0" r="2.0" stroke="#0000b2" stroke-width="4.0" fill="#0000b2" />
<circle cx="900.0" cy="60.0" r="2.0" stroke="#b20000" stroke-width="4.0" fill="#b20000" />
</g>
<g>
<path d="M 1210,190 L 1161,190 L 1161,130 L 1210,130 C 1220,130 1240,140 1239,160 C 1239,180 1220,190 1210,190 Z" stroke="#000000" stroke-width="4.0" fill="none"/>
<circle cx="1250.0" cy="160.0" r="9.0" stroke="#000000" stroke-width="4.0" fill="none" />
<circle cx="1160.0" cy="140.0" r="2.0" stroke="#0000b2" stroke-width="4.0" fill="#0000b2" />
<circle cx="1160.0" cy="180.0" r="2.0" stroke="#0000b2" stroke-width="4.0" fill="#0000b2" />
<circle cx="1260.0" cy="160.0" r="2.0" stroke="#b20000" stroke-width="4.0" fill="#b20000" />
</g>
<g>
<path d="M 1490,270 L 1441,270 L 1441,210 L 1490,210 C 1500,210 1520,220 1519,240 C 1519,260 1500,270 1490,270 Z" stroke="#000000" stroke-width="4.0" fill="none"/>
<circle cx="1530.0" cy="240.0" r="9.0" stroke="#000000" stroke-width="4.0" fill="none" />
<circle cx="1440.0" cy="220.0" r="2.0" stroke="#0000b2" stroke-width="4.0" fill="#0000b2" />
<circle cx="1440.0" cy="260.0" r="2.0" stroke="#0000b2" stroke-width="4.0" fill="#0000b2" />
<circle cx="1540.0" cy="240.0" r="2.0" stroke="#b20000" stroke-width="4.0" fill="#b20000" />
</g>
<g>
<path d="M 1370,110 L 1321,110 L 1321,50 L 1370,50 C 1380,50 1400,60 1399,80 C 1399,100 1380,110 1370,110 Z" stroke="#000000" stroke-width="4.0" fill="none"/>
<circle cx="1410.0" cy="80.0" r="9.0" stroke="#000000" stroke-width="4.0" fill="none" />
<circle cx="1320.0" cy="60.0" r="2.0" stroke="#0000b2" stroke-width="4.0" fill="#0000b2" />
<circle cx="1320.0" cy="100.0" r="2.0" stroke="#0000b2" stroke-width="4.0" fill="#0000b2" />
<circle cx="1420.0" cy="80.0" r="2.0" stroke="#b20000" stroke-width="4.0" fill="#b20000" />
</g>
<g>
<path d="M 1530,150 L 1481,150 L 1481,90 L 1530,90 C 1540,90 1560,100 1559,120 C 1559,140 1540,150 1530,150 Z" stroke="#000000" stroke-width="4.0" fill="none"/>
<circle cx="1570.0" cy="120.0" r="9.0" stroke="#000000" stroke-width="4.0" fill="none" />
<circle cx="1480.0" cy="100.0" r="2.0" stroke="#0000b2" stroke-width="4.0" fill="#0000b2" />
<circle cx="1480.0" cy="140.0" r="2.0" stroke="#0000b2" stroke-width="4.0" fill="#0000b2" />
<circle cx="1580.0" cy="120.0" r="2.0" stroke="#b20000" stroke-width="4.0" fill="#b20000" />
</g>
<g>
<path d="M 1370,190 L 1321,190 L 1321,130 L 1370,130 C 1380,130 1400,140 1399,160 C 1399,180 1380,190 1370,190 Z" stroke="#000000" stroke-width="4.0" fill="none"/>
<circle cx="1410.0" cy="160.0" r="9.0" stroke="#000000" stroke-width="4.0" fill="none" />
<circle cx="1320.0" cy="140.0" r="2.0" stroke="#0000b2" stroke-width="4.0" fill="#0000b2" />
<circle cx="1320.0" cy="180.0" r="2.0" stroke="#0000b2" stroke-width="4.0" fill="#0000b2" />
<circle cx="1420.0" cy="160.0" r="2.0" stroke="#b20000" stroke-width="4.0" fill="#b20000" />
</g>
<g>
<path d="M 690,-70 L 641,-70 L 641,-130 L 690,-130 C 700,-130 720,-120 719,-100 C 719,-80 700,-70 690,-70 Z" stroke="#000000" stroke-width="4.0" fill="none"/>
<circle cx="730.0" cy="-100.0" r="9.0" stroke="#000000" stroke-width="4.0" fill="none" />
<circle cx="640.0" cy="-120.0" r="2.0" stroke="#0000b2" stroke-width="4.0" fill="#0000b2" />
<circle cx="640.0" cy="-80.0" r="2.0" stroke="#0000b2" stroke-width="4.0" fill="#0000b2" />
<circle cx="740.0" cy="-100.0" r="2.0" stroke="#b20000" stroke-width="4.0" fill="#b20000" />
</g>
<g>
<path d="M 850,-30 L 801,-30 L 801,-90 L 850,-90 C 860,-90 880,-80 879,-60 C 879,-40 860,-30 850,-30 Z" stroke="#000000" stroke-width="4.0" fill="none"/>
<circle cx="890.0" cy="-60.0" r="9.0" stroke="#000000" stroke-width="4.0" fill="none" />
<circle cx="800.0" cy="-80.0" r="2.0" stroke="#0000b2" stroke-width="4.0" fill="#0000b2" />
<circle cx="800.0" cy="-40.0" r="2.0" stroke="#0000b2" stroke-width="4.0" fill="#0000b2" />
<circle cx="900.0" cy="-60.0" r="2.0" stroke="#b20000" stroke-width="4.0" fill="#b20000" />
</g>
<g>
<path d="M 690,10 L 641,10 L 641,-50 L 690,-50 C 700,-50 720,-40 719,-20 C 719,0 700,10 690,10 Z" stroke="#000000" stroke-width="4.0" fill="none"/>
<circle cx="730.0" cy="-20.0" r="9.0" stroke="#000000" stroke-width="4.0" fill="none" />
<circle cx="640.0" cy="-40.0" r="2.0" stroke="#0000b2" stroke-width="4.0" fill="#0000b2" />
<circle cx="640.0" cy="0.0" r="2.0" stroke="#0000b2" stroke-width="4.0" fill="#0000b2" />
<circle cx="740.0" cy="-20.0" r="2.0" stroke="#b20000" stroke-width="4.0" fill="#b20000" />
</g>
<g>
<path d="M 690,350 L 641,350 L 641,290 L 690,290 C 700,290 720,300 719,320 C 719,340 700,350 690,350 Z" stroke="#000000" stroke-width="4.0" fill="none"/>
<circle cx="730.0" cy="320.0" r="9.0" stroke="#000000" stroke-width="4.0" fill="none" />
<circle cx="640.0" cy="300.0" r="2.0" stroke="#0000b2" stroke-width="4.0" fill="#0000b2" />
<circle cx="640.0" cy="340.0" r="2.0" stroke="#0000b2" stroke-width="4.0" fill="#0000b2" />
<circle cx="740.0" cy="320.0" r="2.0" stroke="#b20000" stroke-width="4.0" fill="#b20000" />
</g>
<g>
<path d="M 850,390 L 801,390 L 801,330 L 850,330 C 860,330 880,340 879,360 C 879,380 860,390 850,390 Z" stroke="#000000" stroke-width="4.0" fill="none"/>
<circle cx="890.0" cy="360.0" r="9.0" stroke="#000000" stroke-width="4.0" fill="none" />
<circle cx="800.0" cy="340.0" r="2.0" stroke="#0000b2" stroke-width="4.0" fill="#0000b2" />
<circle cx="800.0" cy="380.0" r="2.0" stroke="#0000b2" stroke-width="4.0" fill="#0000b2" />
<circle cx="900.0" cy="360.0" r="2.0" stroke="#b20000" stroke-width="4.0" fill="#b20000" />
</g>
<g>
<path d="M 690,430 L 641,430 L 641,370 L 690,370 C 700,370 720,380 719,400 C 719,420 700,430 690,430 Z" stroke="#000000" stroke-width="4.0" fill="none"/>
<circle cx="730.0" cy="400.0" r="9.0" stroke="#000000" stroke-width="4.0" fill="none" />
<circle cx="640.0" cy="380.0" r="2.0" stroke="#0000b2" stroke-width="4.0" fill="#0000b2" />
<circle cx="640.0" cy="420.0" r="2.0" stroke="#0000b2" stroke-width="4.0" fill="#0000b2" />
<circle cx="740.0" cy="400.0" r="2.0" stroke="#b20000" stroke-width="4.0" fill="#b20000" />
</g>
<g>
<path d="M 1670,250 L 1621,250 L 1621,190 L 1670,190 C 1680,190 1700,200 1699,220 C 1699,240 1680,250 1670,250 Z" stroke="#000000" stroke-width="4.0" fill="none"/>
<circle cx="1710.0" cy="220.0" r="9.0" stroke="#000000" stroke-width="4.0" fill="none" />
<circle cx="1620.0" cy="200.0" r="2.0" stroke="#0000b2" stroke-width="4.0" fill="#0000b2" />
<circle cx="1620.0" cy="240.0" r="2.0" stroke="#0000b2" stroke-width="4.0" fill="#0000b2" />
<circle cx="1720.0" cy="220.0" r="2.0" stroke="#b20000" stroke-width="4.0" fill="#b20000" />
</g>
<g>
<path d="M 1830,250 L 1781,250 L 1781,190 L 1830,190 C 1840,190 1860,200 1859,220 C 1859,240 1840,250 1830,250 Z" stroke="#000000" stroke-width="4.0" fill="none"/>
<circle cx="1870.0" cy="220.0" r="9.0" stroke="#000000" stroke-width="4.0" fill="none" />
<circle cx="1780.0" cy="200.0" r="2.0" stroke="#0000b2" stroke-width="4.0" fill="#0000b2" />
<circle cx="1780.0" cy="240.0" r="2.0" stroke="#0000b2" stroke-width="4.0" fill="#0000b2" />
<circle cx="1880.0" cy="220.0" r="2.0" stroke="#b20000" stroke-width="4.0" fill="#b20000" />
</g>
<g>
<path d="M 1010,70 L 961,70 L 961,10 L 1010,10 C 1020,10 1040,20 1039,40 C 1039,60 1020,70 1010,70 Z" stroke="#000000" stroke-width="4.0" fill="none"/>
<circle cx="1050.0" cy="40.0" r="9.0" stroke="#000000" stroke-width="4.0" fill="none" />
<circle cx="960.0" cy="20.0" r="2.0" stroke="#0000b2" stroke-width="4.0" fill="#0000b2" />
<circle cx="960.0" cy="60.0" r="2.0" stroke="#0000b2" stroke-width="4.0" fill="#0000b2" />
<circle cx="1060.0" cy="40.0" r="2.0" stroke="#b20000" stroke-width="4.0" fill="#b20000" />
</g>
<g>
<path d="M 1150,70 L 1101,70 L 1101,10 L 1150,10 C 1160,10 1180,20 1179,40 C 1179,60 1160,70 1150,70 Z" stroke="#000000" stroke-width="4.0" fill="none"/>
<circle cx="1190.0" cy="40.0" r="9.0" stroke="#000000" stroke-width="4.0" fill="none" />
<circle cx="1100.0" cy="20.0" r="2.0" stroke="#0000b2" stroke-width="4.0" fill="#0000b2" />
<circle cx="1100.0" cy="60.0" r="2.0" stroke="#0000b2" stroke-width="4.0" fill="#0000b2" />
<circle cx="1200.0" cy="40.0" r="2.0" stroke="#b20000" stroke-width="4.0" fill="#b20000" />
</g>
</g>
</svg>